<svg width="1586px" height="1199px" viewBox="0 0 1586 1199" version="1.1" xmlns="http://www.w3.org/2000/svg" xmlns:xlink="http://www.w3.org/1999/xlink">
    <!-- Generator: Sketch 55.2 (78181) - https://sketchapp.com -->
    <title>Aare</title>
    <desc>Created with Sketch.</desc>
    <g id="Patterns" stroke="none" stroke-width="1" fill="none" fill-rule="evenodd">
        <g id="Aare" transform="translate(0.000000, -1.000000)">
            <g transform="translate(0.589219, 1.178782)" id="Shape">
                <path d="M1543.70108,477.111984 C1543.70108,458.099309 1528.29658,442.686194 1509.28532,442.686194 C1490.27405,442.686194 1474.86955,458.099309 1474.86955,477.111984 C1474.86955,496.12466 1490.27405,511.537775 1509.28532,511.537775 C1528.29658,511.537775 1543.70108,496.12466 1543.70108,477.111984 Z M1509.28532,401.375246 C1551.10735,401.375246 1585,435.283272 1585,477.111984 C1585,518.940697 1551.10735,552.848723 1509.28532,552.848723 C1467.46328,552.848723 1433.57063,518.940697 1433.57063,477.111984 C1433.57063,435.283272 1467.46328,401.375246 1509.28532,401.375246 Z" fill="#FF193B"/>
                <path d="M1507.81227,497.445972 C1496.42855,497.445972 1487.18959,488.209823 1487.18959,476.817289 C1487.18959,465.424754 1496.42855,456.188605 1507.81227,456.188605 C1519.19599,456.188605 1528.43494,465.424754 1528.43494,476.817289 C1528.43494,488.209823 1519.19599,497.445972 1507.81227,497.445972 Z" fill="#463C74"/>
                <path d="M449.574349,663.948919 C449.574349,705.777632 415.720164,739.685658 373.957869,739.685658 L236.473358,739.685658 C194.711063,739.685658 160.856877,705.777632 160.856877,663.948919 C160.856877,622.120207 194.711063,588.212181 236.473358,588.212181 L373.957869,588.212181 C415.720164,588.212181 449.574349,622.120207 449.574349,663.948919 Z M373.957869,698.37471 C392.940355,698.37471 408.328996,682.961595 408.328996,663.948919 C408.328996,644.936244 392.940355,629.523129 373.957869,629.523129 L236.473358,629.523129 C217.490872,629.523129 202.10223,644.936244 202.10223,663.948919 C202.10223,682.961595 217.490872,698.37471 236.473358,698.37471 L373.957869,698.37471 Z" fill="#FFC719"/>
                <path d="M350.880112,924.111448 C369.88725,924.111448 385.295877,908.698334 385.295877,889.685658 C385.295877,870.672983 369.88725,855.259868 350.880112,855.259868 C331.872973,855.259868 316.464346,870.672983 316.464346,889.685658 C316.464346,901.092988 307.218895,910.341132 295.814887,910.341132 C284.410879,910.341132 275.165428,901.092988 275.165428,889.685658 C275.165428,847.856946 309.06358,813.948919 350.880112,813.948919 C392.696643,813.948919 426.594796,847.856946 426.594796,889.685658 C426.594796,931.51437 392.696643,965.422397 350.880112,965.422397 C339.476103,965.422397 330.230652,956.174253 330.230652,944.766923 C330.230652,933.359593 339.476103,924.111448 350.880112,924.111448 Z" fill-rule="nonzero" fill="#E5D5E5"/>
                <path d="M302.33106,643.614931 C327.715757,643.614931 348.126333,623.204912 348.126333,598.231827 C348.126333,573.258743 327.715757,552.848723 302.33106,552.848723 C288.307317,552.848723 275.794142,559.067583 267.374383,568.911591 C259.962129,577.578389 246.912812,578.608448 238.228428,571.212377 C229.542667,563.816306 228.510354,550.795481 235.922608,542.130059 C251.888312,523.462475 275.736255,511.591356 302.33106,511.591356 C350.367375,511.591356 389.473978,550.289391 389.473978,598.231827 C389.473978,646.174263 350.367375,684.872299 302.33106,684.872299 C290.913597,684.872299 281.657238,675.636149 281.657238,664.243615 C281.657238,652.851081 290.913597,643.614931 302.33106,643.614931 Z" fill="#E5D5E5" fill-rule="nonzero"/>
                <path d="M630.34758,112.772855 C643.787686,99.3654632 643.787686,77.6276665 630.34758,64.2202749 C616.907474,50.8128833 595.116689,50.8128833 581.676583,64.2202749 C568.236478,77.6276665 568.236478,99.3654632 581.676583,112.772855 C589.740922,120.817207 589.740922,133.860407 581.676583,141.903661 C573.612245,149.948288 560.536948,149.948288 552.473985,141.903661 C522.905202,112.407976 522.905202,64.5851533 552.473985,35.0887819 C582.041392,5.59254781 629.981395,5.59253408 659.550178,35.0887819 C689.118962,64.5851533 689.118962,112.407976 659.550178,141.903661 C651.485839,149.948288 638.411919,149.948288 630.34758,141.903661 C622.283241,133.860407 622.283241,120.817207 630.34758,112.772855 Z" fill="#463C74"/>
                <path d="M553.42514,113.311148 C561.478983,105.255158 574.535887,105.255158 582.58973,113.311148 C590.643572,121.367139 590.643572,134.428298 582.58973,142.484426 C574.535887,150.540555 561.478983,150.540555 553.42514,142.484426 C545.371298,134.428298 545.371298,121.367139 553.42514,113.311148 Z" fill="#B8001C"/>
                <path d="M79.5883583,538.061599 C98.6217786,537.813727 113.850583,522.2019 113.603118,503.190092 C113.355515,484.178283 97.7252529,468.965807 78.6919705,469.213679 C67.2719183,469.362403 57.8937608,460.235192 57.7452819,448.827556 C57.5966652,437.421298 66.7339753,428.0531 78.1540275,427.904377 C120.027414,427.360435 154.413578,460.825955 154.958139,502.653035 C155.502699,544.478738 121.99955,578.825582 80.1263012,579.369524 C68.706249,579.518248 59.3280916,570.391037 59.1794748,558.983401 C59.030996,547.577143 68.1683061,538.208945 79.5883583,538.061599 Z" fill="#9529FF"/>
                <path d="M449.574349,668.369352 C449.574349,720.77721 492.046064,763.261297 544.438662,763.261297 C555.827879,763.261297 565.061338,772.497446 565.061338,783.88998 C565.061338,795.282515 555.827879,804.518664 544.438662,804.518664 C469.267631,804.518664 408.328996,743.562279 408.328996,668.369352 C408.328996,656.976817 417.562456,647.740668 428.951673,647.740668 C440.34089,647.740668 449.574349,656.976817 449.574349,668.369352 Z" fill="#E5D5E5" fill-rule="nonzero"/>
                <path d="M869.647097,51.3583091 C793.567535,51.3583091 731.891681,113.05144 731.891681,189.153851 C731.891681,200.568834 722.640027,209.823183 711.228368,209.823183 C699.816709,209.823183 690.565056,200.568834 690.565056,189.153851 C690.565056,90.2207859 770.742841,10.0196464 869.647097,10.0196464 C881.058755,10.0196464 890.310409,19.2735816 890.310409,30.6889777 C890.310409,42.1043738 881.058755,51.3583091 869.647097,51.3583091 Z" fill="#9529FF"/>
                <path d="M1066.44398,178.563951 C1066.44398,108.614584 1009.75506,51.909426 939.826337,51.909426 C928.425244,51.909426 919.182156,42.6640586 919.182156,31.2592316 C919.182156,19.8544047 928.425244,10.6090373 939.826337,10.6090373 C1032.55862,10.6090373 1107.73234,85.8050679 1107.73234,178.563951 C1107.73234,189.968365 1098.48925,199.214145 1087.08816,199.214145 C1075.68707,199.214145 1066.44398,189.968365 1066.44398,178.563951 Z" fill="#FFC719"/>
                <path d="M422.47026,570.530452 C422.47026,515.843811 378.152128,471.51277 323.481413,471.51277 C312.092196,471.51277 302.858736,462.276621 302.858736,450.884086 C302.858736,439.491552 312.092196,430.255403 323.481413,430.255403 C400.930562,430.255403 463.715613,493.058743 463.715613,570.530452 C463.715613,581.922986 454.482154,591.159136 443.092937,591.159136 C431.70372,591.159136 422.47026,581.922986 422.47026,570.530452 Z" fill="#9529FF"/>
                <path d="M58.9237124,559.011497 C58.775642,547.618811 67.8878136,538.262892 79.2764469,538.115739 C90.6650803,537.96721 100.017437,547.082459 100.165507,558.473769 C100.313577,569.866454 91.2014058,579.220998 79.8127724,579.369527 C68.4242765,579.518055 59.0719203,570.402807 58.9237124,559.011497 Z" fill="#B8001C"/>
                <path d="M295.788104,911.787819 C284.398887,911.787819 275.165428,902.55167 275.165428,891.159136 C275.165428,879.766601 284.398887,870.530452 295.788104,870.530452 C307.177321,870.530452 316.410781,879.766601 316.410781,891.159136 C316.410781,902.55167 307.177321,911.787819 295.788104,911.787819 Z" fill="#B8001C"/>
                <path d="M428.951673,688.998035 C417.562456,688.998035 408.328996,679.761886 408.328996,668.369352 C408.328996,656.976817 417.562456,647.740668 428.951673,647.740668 C440.34089,647.740668 449.574349,656.976817 449.574349,668.369352 C449.574349,679.761886 440.34089,688.998035 428.951673,688.998035 Z" fill="#B8001C"/>
                <path d="M181.479554,686.051081 C170.090337,686.051081 160.856877,676.814931 160.856877,665.422397 C160.856877,654.029862 170.090337,644.793713 181.479554,644.793713 C192.868771,644.793713 202.10223,654.029862 202.10223,665.422397 C202.10223,676.814931 192.868771,686.051081 181.479554,686.051081 Z" fill="#B8001C"/>
                <path d="M577.970598,661.591356 C577.970598,642.57868 562.561972,627.165565 543.554833,627.165565 C524.546317,627.165565 509.139067,642.57868 509.139067,661.591356 C509.139067,680.604031 524.546317,696.017146 543.554833,696.017146 C562.561972,696.017146 577.970598,680.604031 577.970598,661.591356 Z M543.554833,585.854617 C585.369988,585.854617 619.269517,619.762643 619.269517,661.591356 C619.269517,703.420068 585.369988,737.328094 543.554833,737.328094 C501.738301,737.328094 467.840149,703.420068 467.840149,661.591356 C467.840149,619.762643 501.738301,585.854617 543.554833,585.854617 Z" fill="#9529FF"/>
                <path d="M635.767658,248.722986 C635.767658,260.115521 645.013201,269.35167 656.420397,269.35167 C675.430554,269.35167 690.841628,284.744794 690.841628,303.732809 L690.841628,441.257367 C690.841628,460.245383 675.430554,475.638507 656.420397,475.638507 C645.013201,475.638507 635.767658,484.874656 635.767658,496.267191 C635.767658,507.659725 645.013201,516.895874 656.420397,516.895874 C678.119541,516.895874 697.687323,507.779371 711.494367,493.171513 C725.300034,507.779371 744.869193,516.895874 766.568337,516.895874 L829.903403,516.895874 C871.726576,516.895874 905.630112,483.031827 905.630112,441.257367 C905.630112,429.864833 896.383192,420.628684 884.977373,420.628684 C873.571554,420.628684 864.324634,429.864833 864.324634,441.257367 C864.324634,460.245383 848.91356,475.638507 829.903403,475.638507 L766.568337,475.638507 C747.558179,475.638507 732.147106,460.245383 732.147106,441.257367 L732.147106,303.732809 C732.147106,261.95835 698.242193,228.094303 656.420397,228.094303 C645.013201,228.094303 635.767658,237.330452 635.767658,248.722986 Z" fill="#FFC719"/>
                <path d="M677.013011,496.399295 C677.013011,485.001149 667.767878,475.76045 656.364263,475.76045 C637.357778,475.76045 621.949683,460.359743 621.949683,441.362374 L621.949683,303.77007 C621.949683,284.7727 637.357778,269.371994 656.364263,269.371994 C667.767878,269.371994 677.013011,260.131295 677.013011,248.733148 C677.013011,237.335002 667.767878,228.094303 656.364263,228.094303 C614.549171,228.094303 580.652186,261.975032 580.652186,303.77007 L580.652186,441.362374 C580.652186,443.056135 580.707249,444.736137 580.817376,446.401004 C546.450976,456.917184 521.459108,488.875748 521.459108,526.669602 L521.459108,606.473139 C521.459108,617.871285 530.704241,627.111984 542.107856,627.111984 C553.511471,627.111984 562.756604,617.871285 562.756604,606.473139 L562.756604,526.669602 C562.756604,506.797146 576.354493,490.097568 594.756658,485.361641 C608.492205,504.539256 630.967679,517.038141 656.364263,517.038141 C667.767878,517.038141 677.013011,507.797442 677.013011,496.399295 Z" fill="#E5D5E5" fill-rule="nonzero"/>
                <path d="M656.095725,516.949455 C637.087209,516.949455 621.679959,532.36257 621.679959,551.375246 C621.679959,570.387921 637.087209,585.801036 656.095725,585.801036 C675.102864,585.801036 690.51149,570.387921 690.51149,551.375246 C690.51149,539.967916 699.755565,530.719771 711.16095,530.719771 C722.564958,530.719771 731.810409,539.967916 731.810409,551.375246 C731.810409,593.203958 697.91088,627.111984 656.095725,627.111984 C614.279193,627.111984 580.381041,593.203958 580.381041,551.375246 C580.381041,509.546533 614.279193,475.638507 656.095725,475.638507 C667.499733,475.638507 676.745184,484.886651 676.745184,496.293981 C676.745184,507.701311 667.499733,516.949455 656.095725,516.949455 Z" fill="#463C74"/>
                <path d="M1153.1558,655.697446 C1153.1558,636.68477 1168.56442,621.271656 1187.57156,621.271656 C1206.5787,621.271656 1221.98733,636.68477 1221.98733,655.697446 C1221.98733,674.710121 1206.5787,690.123236 1187.57156,690.123236 C1176.16755,690.123236 1166.9221,699.371381 1166.9221,710.77871 C1166.9221,722.18604 1176.16755,731.434185 1187.57156,731.434185 C1229.38809,731.434185 1263.28625,697.526158 1263.28625,655.697446 C1263.28625,613.868734 1229.38809,579.960707 1187.57156,579.960707 C1145.75503,579.960707 1111.85688,613.868734 1111.85688,655.697446 C1111.85688,667.104776 1121.10233,676.35292 1132.50634,676.35292 C1143.91034,676.35292 1153.1558,667.104776 1153.1558,655.697446 Z" fill="#E5D5E5" fill-rule="nonzero"/>
                <path d="M656.390335,516.895874 C644.999743,516.895874 635.767658,507.659725 635.767658,496.267191 C635.767658,484.874656 644.999743,475.638507 656.390335,475.638507 C667.779551,475.638507 677.013011,484.874656 677.013011,496.267191 C677.013011,507.659725 667.779551,516.895874 656.390335,516.895874 Z" fill="#B8001C"/>
                <path d="M656.390335,269.35167 C644.999743,269.35167 635.767658,260.115521 635.767658,248.722986 C635.767658,237.330452 644.999743,228.094303 656.390335,228.094303 C667.779551,228.094303 677.013011,237.330452 677.013011,248.722986 C677.013011,260.115521 667.779551,269.35167 656.390335,269.35167 Z" fill="#B8001C"/>
                <path d="M542.081784,627.111984 C530.692568,627.111984 521.459108,617.875835 521.459108,606.483301 C521.459108,595.090766 530.692568,585.854617 542.081784,585.854617 C553.471001,585.854617 562.704461,595.090766 562.704461,606.483301 C562.704461,617.875835 553.471001,627.111984 542.081784,627.111984 Z" fill="#B8001C"/>
                <path d="M543.260223,681.925344 C531.871006,681.925344 522.637546,672.689194 522.637546,661.29666 C522.637546,649.904126 531.871006,640.667976 543.260223,640.667976 C554.64944,640.667976 563.8829,649.904126 563.8829,661.29666 C563.8829,672.689194 554.64944,681.925344 543.260223,681.925344 Z" fill="#463C74"/>
                <path d="M1409.24004,478.33874 C1409.24004,520.140957 1375.337,554.027505 1333.51444,554.027505 L1195.83154,554.027505 C1154.00899,554.027505 1120.10595,520.140957 1120.10595,478.33874 C1120.10595,436.536523 1154.00899,402.649975 1195.83154,402.649975 L1239.89007,402.649975 L1239.89007,359.300955 C1239.89007,317.500114 1273.79311,283.61219 1315.61567,283.61219 L1453.29857,283.61219 C1472.31258,283.61219 1487.71929,268.208838 1487.71929,249.208206 L1487.71929,185.904875 C1487.71929,166.904243 1472.31258,151.500891 1453.29857,151.500891 C1441.89842,151.500891 1432.64613,142.258605 1432.64613,130.8585 C1432.64613,119.457983 1441.89842,110.21611 1453.29857,110.21611 C1495.12663,110.21611 1529.02416,144.102658 1529.02416,185.904875 L1529.02416,249.208206 C1529.02416,270.896477 1519.89579,290.45583 1505.27386,304.25458 C1519.89579,318.054706 1529.02416,337.612683 1529.02416,359.300955 L1529.02416,421.228126 C1529.02416,432.62823 1519.77187,441.870517 1508.37173,441.870517 C1496.97158,441.870517 1487.71929,432.62823 1487.71929,421.228126 L1487.71929,359.300955 C1487.71929,340.300323 1472.31258,324.896971 1453.29857,324.896971 L1315.61567,324.896971 C1296.60579,324.896971 1281.19494,340.300323 1281.19494,359.300955 L1281.19494,402.649975 L1333.51444,402.649975 C1375.337,402.649975 1409.24004,436.536523 1409.24004,478.33874 Z M1195.83154,443.934756 C1176.82167,443.934756 1161.41082,459.338108 1161.41082,478.33874 C1161.41082,497.339372 1176.82167,512.742724 1195.83154,512.742724 L1333.51444,512.742724 C1352.52432,512.742724 1367.93517,497.339372 1367.93517,478.33874 C1367.93517,459.338108 1352.52432,443.934756 1333.51444,443.934756 L1195.83154,443.934756 Z" fill="#FFC719"/>
                <path d="M1100.16244,280.108858 C1123.64884,289.661191 1150.24748,278.455649 1159.68611,255.346453 C1169.12335,232.237256 1157.95096,205.6691 1134.46456,196.116768 C1121.48817,190.839691 1107.55883,191.885487 1096.04905,197.826321 C1085.91499,203.056673 1073.45225,199.098866 1068.21102,188.987218 C1062.96979,178.87557 1066.93583,166.43871 1077.06851,161.208358 C1098.89551,149.94235 1125.4487,147.930464 1150.05606,157.939044 C1194.50189,176.014405 1216.06173,226.542411 1197.94325,270.905582 C1179.82478,315.270128 1129.01539,336.363317 1084.56956,318.287956 C1074.00585,313.990712 1068.93124,301.960627 1073.23743,291.418842 C1077.54223,280.875684 1089.59735,275.812989 1100.16244,280.108858 Z" fill="#9529FF"/>
                <path d="M1408.82342,482.711198 C1408.82342,535.119057 1451.29239,577.603143 1503.68773,577.603143 C1515.07145,577.603143 1524.31041,586.839293 1524.31041,598.231827 C1524.31041,609.624361 1515.07145,618.860511 1503.68773,618.860511 C1428.5112,618.860511 1367.57807,557.904126 1367.57807,482.711198 C1367.57807,471.318664 1376.81703,462.082515 1388.20074,462.082515 C1399.58446,462.082515 1408.82342,471.318664 1408.82342,482.711198 Z" fill="#9529FF"/>
                <path d="M1388.20074,502.1611 C1376.81703,502.1611 1367.57807,492.924951 1367.57807,481.532417 C1367.57807,470.139882 1376.81703,460.903733 1388.20074,460.903733 C1399.58446,460.903733 1408.82342,470.139882 1408.82342,481.532417 C1408.82342,492.924951 1399.58446,502.1611 1388.20074,502.1611 Z" fill="#B8001C"/>
                <path d="M635.714093,399.649172 C635.714093,380.699907 620.305466,365.338198 601.298327,365.338198 C582.289812,365.338198 566.882562,380.699907 566.882562,399.649172 C566.882562,411.018456 557.63711,420.235756 546.233102,420.235756 C534.827718,420.235756 525.583643,411.018456 525.583643,399.649172 C525.583643,357.959966 559.481795,324.165029 601.298327,324.165029 C643.113482,324.165029 677.013011,357.959966 677.013011,399.649172 C677.013011,411.018456 667.76756,420.235756 656.363552,420.235756 C644.958167,420.235756 635.714093,411.018456 635.714093,399.649172 Z" fill="#9529FF"/>
                <path d="M974.515208,442.674712 C974.515208,423.725448 959.106581,408.363738 940.099442,408.363738 C921.092303,408.363738 905.683677,423.725448 905.683677,442.674712 C905.683677,454.043997 896.438226,463.261297 885.034218,463.261297 C873.63021,463.261297 864.384758,454.043997 864.384758,442.674712 C864.384758,400.985507 898.282911,367.19057 940.099442,367.19057 C981.915974,367.19057 1015.81413,400.985507 1015.81413,442.674712 C1015.81413,454.043997 1006.56868,463.261297 995.164667,463.261297 C983.760659,463.261297 974.515208,454.043997 974.515208,442.674712 Z" fill="#463C74"/>
                <path d="M664.662974,669.500982 C725.477178,669.500982 774.776283,620.187517 774.776283,559.355599 C774.776283,547.950045 784.020295,538.70334 795.422528,538.70334 C806.824761,538.70334 816.068773,547.950045 816.068773,559.355599 C816.068773,642.998626 748.281644,710.805501 664.662974,710.805501 C653.260741,710.805501 644.016729,701.558796 644.016729,690.153242 C644.016729,678.747687 653.260741,669.500982 664.662974,669.500982 Z" fill="#FFC719"/>
                <path d="M656.390335,420.235756 C644.999743,420.235756 635.767658,410.999607 635.767658,399.607073 C635.767658,388.214538 644.999743,378.978389 656.390335,378.978389 C667.779551,378.978389 677.013011,388.214538 677.013011,399.607073 C677.013011,410.999607 667.779551,420.235756 656.390335,420.235756 Z" fill="#B8001C"/>
                <path d="M800.749071,289.980354 C789.359854,289.980354 780.126394,280.744204 780.126394,269.35167 C780.126394,257.959136 789.359854,248.722986 800.749071,248.722986 C812.138287,248.722986 821.371747,257.959136 821.371747,269.35167 C821.371747,280.744204 812.138287,289.980354 800.749071,289.980354 Z" fill="#B8001C"/>
                <path d="M1114.21375,711.984283 C1114.21375,723.376817 1123.44721,732.612967 1134.83643,732.612967 C1146.22565,732.612967 1155.45911,723.376817 1155.45911,711.984283 C1155.45911,700.591749 1146.22565,691.355599 1134.83643,691.355599 C1123.44721,691.355599 1114.21375,700.591749 1114.21375,711.984283 Z" fill="#B8001C"/>
                <path d="M1059.41636,711.984283 C1059.41636,723.376817 1068.64982,732.612967 1080.03903,732.612967 C1091.42825,732.612967 1100.66171,723.376817 1100.66171,711.984283 C1100.66171,700.591749 1091.42825,691.355599 1080.03903,691.355599 C1068.64982,691.355599 1059.41636,700.591749 1059.41636,711.984283 Z" fill="#B8001C"/>
                <path d="M1463.91543,1198.23183 C1422.09339,1198.23183 1388.20074,1164.36778 1388.20074,1122.59332 L1388.20074,985.068762 C1388.20074,943.294303 1422.09339,909.430255 1463.91543,909.430255 C1505.73747,909.430255 1539.63011,943.294303 1539.63011,985.068762 L1539.63011,1122.59332 C1539.63011,1164.36778 1505.73747,1198.23183 1463.91543,1198.23183 Z M1498.33119,1122.59332 L1498.33119,985.068762 C1498.33119,966.080747 1482.9267,950.687623 1463.91543,950.687623 C1444.90416,950.687623 1429.49966,966.080747 1429.49966,985.068762 L1429.49966,1122.59332 C1429.49966,1141.58134 1444.90416,1156.97446 1463.91543,1156.97446 C1482.9267,1156.97446 1498.33119,1141.58134 1498.33119,1122.59332 Z" fill="#FFC719" style="mix-blend-mode: multiply;"/>
                <path d="M1484.95056,930.088409 C1484.95056,888.373627 1518.89595,854.557957 1560.78309,854.557957 C1572.19933,854.557957 1581.46468,845.335002 1581.46468,833.958743 C1581.46468,822.582483 1572.19933,813.359528 1560.78309,813.359528 C1496.06347,813.359528 1443.58736,865.621108 1443.58736,930.088409 C1443.58736,941.464668 1452.85272,950.687623 1464.26896,950.687623 C1475.6852,950.687623 1484.95056,941.464668 1484.95056,930.088409 Z" fill="#E5D5E5" fill-rule="nonzero"/>
                <path d="M1484.83271,930.058939 C1484.83271,918.665029 1475.59375,909.430255 1464.21004,909.430255 C1452.82632,909.430255 1443.58736,918.665029 1443.58736,930.058939 C1443.58736,941.451473 1452.82632,950.687623 1464.21004,950.687623 C1475.59375,950.687623 1484.83271,941.451473 1484.83271,930.058939 Z" fill="#B8001C"/>
                <path d="M1279.48978,1088.0693 C1260.48264,1088.0693 1245.07401,1103.48241 1245.07401,1122.49509 C1245.07401,1141.50776 1260.48264,1156.92088 1279.48978,1156.92088 C1298.49692,1156.92088 1313.90554,1141.50776 1313.90554,1122.49509 C1313.90554,1103.48241 1298.49692,1088.0693 1279.48978,1088.0693 Z M1203.77509,1122.49509 C1203.77509,1080.66638 1237.67325,1046.75835 1279.48978,1046.75835 C1321.30631,1046.75835 1355.20446,1080.66638 1355.20446,1122.49509 C1355.20446,1164.3238 1321.30631,1198.23183 1279.48978,1198.23183 C1237.67325,1198.23183 1203.77509,1164.3238 1203.77509,1122.49509 Z" fill="#9529FF"/>
                <path d="M866.751795,988.998035 C878.146622,988.998035 887.38463,998.257746 887.38463,1009.67934 C887.38463,1028.7158 902.780852,1044.14819 921.772689,1044.14819 L1059.32493,1044.14819 C1078.31676,1044.14819 1093.71299,1028.7158 1093.71299,1009.67934 C1093.71299,998.257746 1102.95099,988.998035 1114.34582,988.998035 C1125.74065,988.998035 1134.97866,998.257746 1134.97866,1009.67934 C1134.97866,1035.0622 1122.53706,1057.53175 1103.4338,1071.29585 C1108.28114,1089.08591 1124.61272,1102.05585 1144.60731,1102.05585 L1224.38761,1102.05585 C1235.78244,1102.05585 1245.02045,1111.31556 1245.02045,1122.73716 C1245.02045,1134.15876 1235.78244,1143.41847 1224.38761,1143.41847 L1144.60731,1143.41847 C1107.28802,1143.41847 1075.23284,1119.44332 1064.51477,1085.3357 C1062.7995,1085.45152 1061.06909,1085.51081 1059.32493,1085.51081 L921.772689,1085.51081 C879.989822,1085.51081 846.118959,1051.56037 846.118959,1009.67934 C846.118959,998.257746 855.356967,988.998035 866.751795,988.998035 Z" fill="#E5D5E5" fill-rule="nonzero"/>
                <path d="M697.341078,742.632613 C739.15761,742.632613 773.055762,776.49666 773.055762,818.27112 L773.055762,955.795678 C773.055762,997.570138 739.15761,1031.43418 697.341078,1031.43418 C655.524546,1031.43418 621.626394,997.570138 621.626394,955.795678 L621.626394,818.27112 C621.626394,776.49666 655.524546,742.632613 697.341078,742.632613 Z M731.756844,818.27112 C731.756844,799.283104 716.348217,783.88998 697.341078,783.88998 C678.333939,783.88998 662.925313,799.283104 662.925313,818.27112 L662.925313,955.795678 C662.925313,974.783694 678.333939,990.176817 697.341078,990.176817 C716.348217,990.176817 731.756844,974.783694 731.756844,955.795678 L731.756844,818.27112 Z" fill="#FFC719"/>
                <path d="M866.741636,1030.2554 C878.130853,1030.2554 887.364312,1021.00579 887.364312,1009.59665 C887.364312,990.580953 902.752954,975.16539 921.73544,975.16539 C921.73544,975.16539 921.73544,975.16539 921.73544,975.16539 L1059.21995,975.16539 C1078.20244,975.16539 1093.59108,990.580953 1093.59108,1009.59665 C1093.59108,1021.00579 1102.82454,1030.2554 1114.21375,1030.2554 C1125.60297,1030.2554 1134.83643,1021.00579 1134.83643,1009.59665 C1134.83643,987.891183 1125.72258,968.317702 1111.11898,954.506636 C1125.72258,940.69557 1134.83643,921.122088 1134.83643,899.416623 L1134.83643,836.063109 C1134.83643,794.227753 1100.98225,760.314342 1059.21995,760.314342 C1047.83073,760.314342 1038.59727,769.563955 1038.59727,780.973097 C1038.59727,792.382238 1047.83073,801.631851 1059.21995,801.631851 C1078.20244,801.631851 1093.59108,817.047414 1093.59108,836.063109 L1093.59108,899.416623 C1093.59108,918.432318 1078.20244,933.847881 1059.21995,933.847881 L921.736815,933.847881 C921.73544,933.847881 921.736815,933.847881 921.736815,933.847881 C879.97452,933.847881 846.118959,967.761293 846.118959,1009.59665 C846.118959,1021.00579 855.352419,1030.2554 866.741636,1030.2554 Z" fill="#FFC719"/>
                <path d="M1134.89,1009.33202 C1134.89,1028.3447 1150.29862,1043.75781 1169.30576,1043.75781 C1188.3129,1043.75781 1203.72153,1028.3447 1203.72153,1009.33202 C1203.72153,990.319348 1188.3129,974.906233 1169.30576,974.906233 C1157.90175,974.906233 1148.6563,965.658089 1148.6563,954.250759 C1148.6563,942.843429 1157.90175,933.595285 1169.30576,933.595285 C1211.12229,933.595285 1245.02045,967.503311 1245.02045,1009.33202 C1245.02045,1051.16074 1211.12229,1085.06876 1169.30576,1085.06876 C1127.48923,1085.06876 1093.59108,1051.16074 1093.59108,1009.33202 C1093.59108,997.924694 1102.83653,988.676549 1114.24054,988.676549 C1125.64455,988.676549 1134.89,997.924694 1134.89,1009.33202 Z" fill="#463C74"/>
                <path d="M959.195505,840.176817 C959.195505,821.164142 943.786879,805.751027 924.77974,805.751027 C905.772601,805.751027 890.363974,821.164142 890.363974,840.176817 C890.363974,859.189493 905.772601,874.602608 924.77974,874.602608 C936.183748,874.602608 945.429199,883.850752 945.429199,895.258082 C945.429199,906.665412 936.183748,915.913556 924.77974,915.913556 C882.963208,915.913556 849.065056,882.00553 849.065056,840.176817 C849.065056,798.348105 882.963208,764.440079 924.77974,764.440079 C966.596271,764.440079 1000.49442,798.348105 1000.49442,840.176817 C1000.49442,851.584147 991.248973,860.832291 979.844965,860.832291 C968.440956,860.832291 959.195505,851.584147 959.195505,840.176817 Z" fill="#463C74"/>
                <path d="M677.013011,951.804843 C677.013011,926.412752 656.608935,905.996231 631.643123,905.996231 C606.67731,905.996231 586.273234,926.412752 586.273234,951.804843 C586.273234,965.832671 592.490284,978.349492 602.331425,986.771703 C610.995699,994.186116 612.025458,1007.23923 604.631541,1015.92615 C597.237624,1024.61444 584.22059,1025.64705 575.557691,1018.23264 C556.895544,1002.26228 545.027881,978.407395 545.027881,951.804843 C545.027881,903.754536 583.714647,864.636542 631.643123,864.636542 C679.571598,864.636542 718.258364,903.754536 718.258364,951.804843 C718.258364,963.225632 709.024905,972.484688 697.635688,972.484688 C686.246471,972.484688 677.013011,963.225632 677.013011,951.804843 Z" fill="#FF193B"/>
                <path d="M1134.83643,1009.03733 C1134.83643,1020.42986 1125.60297,1029.66601 1114.21375,1029.66601 C1102.82454,1029.66601 1093.59108,1020.42986 1093.59108,1009.03733 C1093.59108,997.644794 1102.82454,988.408644 1114.21375,988.408644 C1125.60297,988.408644 1134.83643,997.644794 1134.83643,1009.03733 Z" fill="#B8001C"/>
                <path d="M887.364312,1009.62672 C887.364312,1021.01925 878.130853,1030.2554 866.741636,1030.2554 C855.352419,1030.2554 846.118959,1021.01925 846.118959,1009.62672 C846.118959,998.234185 855.352419,988.998035 866.741636,988.998035 C878.130853,988.998035 887.364312,998.234185 887.364312,1009.62672 Z" fill="#B8001C"/>
                <path d="M1245.02045,1122.78978 C1245.02045,1134.18232 1235.78699,1143.41847 1224.39777,1143.41847 C1213.00855,1143.41847 1203.77509,1134.18232 1203.77509,1122.78978 C1203.77509,1111.39725 1213.00855,1102.1611 1224.39777,1102.1611 C1235.78699,1102.1611 1245.02045,1111.39725 1245.02045,1122.78978 Z" fill="#B8001C"/>
                <path d="M1300.40706,1122.20039 C1300.40706,1133.59293 1291.1736,1142.82908 1279.78439,1142.82908 C1268.39517,1142.82908 1259.16171,1133.59293 1259.16171,1122.20039 C1259.16171,1110.80786 1268.39517,1101.57171 1279.78439,1101.57171 C1291.1736,1101.57171 1300.40706,1110.80786 1300.40706,1122.20039 Z" fill="#B8001C"/>
                <path d="M1018.21309,1030.30898 C999.269344,1030.30898 983.912108,1045.7221 983.912108,1064.73477 C983.912108,1083.74745 999.269344,1099.16056 1018.21309,1099.16056 C1029.57906,1099.16056 1038.79368,1108.40871 1038.79368,1119.81604 C1038.79368,1131.22337 1029.57906,1140.47151 1018.21309,1140.47151 C976.536025,1140.47151 942.750929,1106.56349 942.750929,1064.73477 C942.750929,1022.90606 976.536025,988.998035 1018.21309,988.998035 C1029.57906,988.998035 1038.79368,998.24618 1038.79368,1009.65351 C1038.79368,1021.06084 1029.57906,1030.30898 1018.21309,1030.30898 Z" fill="#9529FF"/>
                <path d="M1060.55797,661.29666 C1034.31902,661.29666 1012.35246,683.075049 1012.35246,710.805501 C1012.35246,738.535953 1034.31902,760.314342 1060.55797,760.314342 C1071.96752,760.314342 1081.21747,769.550491 1081.21747,780.943026 C1081.21747,792.33556 1071.96752,801.571709 1060.55797,801.571709 C1010.73138,801.571709 971.033457,760.546758 971.033457,710.805501 C971.033457,661.064244 1010.73138,620.039293 1060.55797,620.039293 C1071.96752,620.039293 1081.21747,629.275442 1081.21747,640.667976 C1081.21747,652.060511 1071.96752,661.29666 1060.55797,661.29666 Z" fill="#9529FF"/>
                <path d="M924.469944,915.9901 C872.038766,915.9901 829.535776,958.553007 829.535776,1011.0581 C829.535776,1052.91006 795.656661,1086.83694 753.863613,1086.83694 C712.070565,1086.83694 678.19145,1052.91006 678.19145,1011.0581 C678.19145,999.644426 687.431709,990.391141 698.829312,990.391141 C710.226916,990.391141 719.467175,999.644426 719.467175,1011.0581 C719.467175,1030.08134 734.867148,1045.50302 753.863613,1045.50302 C772.860077,1045.50302 788.260051,1030.08134 788.260051,1011.0581 C788.260051,935.725665 849.243559,874.656189 924.469944,874.656189 C935.867548,874.656189 945.107807,883.909474 945.107807,895.323144 C945.107807,906.736815 935.867548,915.9901 924.469944,915.9901 Z" fill="#9529FF"/>
                <path d="M701.760223,742.632613 C788.320471,742.632613 858.492565,672.440079 858.492565,585.854617 C858.492565,574.462083 867.726025,565.225933 879.115242,565.225933 C890.504458,565.225933 899.737918,574.462083 899.737918,585.854617 C899.737918,695.226523 811.100279,783.88998 701.760223,783.88998 C690.371006,783.88998 681.137546,774.653831 681.137546,763.261297 C681.137546,751.868762 690.371006,742.632613 701.760223,742.632613 Z" fill="#E5D5E5" fill-rule="nonzero"/>
                <path d="M1309.79308,50.1812446 C1235.99168,50.1812446 1176.16477,110.02613 1176.16477,183.848474 C1176.16477,195.263931 1166.91273,204.518664 1155.5006,204.518664 C1144.08847,204.518664 1134.83643,195.263931 1134.83643,183.848474 C1134.83643,87.1943894 1213.16742,8.84086444 1309.79308,8.84086444 C1321.20521,8.84086444 1330.45725,18.0951842 1330.45725,29.5110545 C1330.45725,40.9269249 1321.20521,50.1812446 1309.79308,50.1812446 Z" fill="#E5D5E5" fill-rule="nonzero"/>
                <path d="M1273.89219,994.302554 C1273.89219,941.894695 1231.42048,899.410609 1179.02788,899.410609 C1167.63866,899.410609 1158.4052,890.17446 1158.4052,878.781925 C1158.4052,867.389391 1167.63866,858.153242 1179.02788,858.153242 C1254.19891,858.153242 1315.13755,919.109627 1315.13755,994.302554 C1315.13755,1005.69509 1305.90409,1014.93124 1294.51487,1014.93124 C1283.12565,1014.93124 1273.89219,1005.69509 1273.89219,994.302554 Z" fill="#FF193B"/>
                <path d="M586.305609,852.783955 C551.432501,852.783955 523.162016,881.062674 523.162016,915.94594 C523.162016,927.32059 513.943052,936.54224 502.571715,936.54224 C491.200377,936.54224 481.981413,927.32059 481.981413,915.94594 C481.981413,858.312002 528.688453,811.591356 586.305609,811.591356 C597.676946,811.591356 606.895911,820.813005 606.895911,832.187655 C606.895911,843.562305 597.676946,852.783955 586.305609,852.783955 Z" fill="#9529FF"/>
                <path d="M1038.79368,1009.62672 C1038.79368,1021.01925 1029.56022,1030.2554 1018.171,1030.2554 C1006.78179,1030.2554 997.548327,1021.01925 997.548327,1009.62672 C997.548327,998.234185 1006.78179,988.998035 1018.171,988.998035 C1029.56022,988.998035 1038.79368,998.234185 1038.79368,1009.62672 Z" fill="#B8001C"/>
                <path d="M945.697026,895.284872 C945.697026,906.677407 936.463566,915.913556 925.074349,915.913556 C913.685133,915.913556 904.451673,906.677407 904.451673,895.284872 C904.451673,883.892338 913.685133,874.656189 925.074349,874.656189 C936.463566,874.656189 945.697026,883.892338 945.697026,895.284872 Z" fill="#B8001C"/>
                <path d="M945.107807,726.129666 C945.107807,737.5222 935.874347,746.75835 924.48513,746.75835 C913.095913,746.75835 903.862454,737.5222 903.862454,726.129666 C903.862454,714.737132 913.095913,705.500982 924.48513,705.500982 C935.874347,705.500982 945.107807,714.737132 945.107807,726.129666 Z" fill="#B8001C"/>
                <path d="M945.107807,670.726916 C945.107807,682.11945 935.874347,691.355599 924.48513,691.355599 C913.095913,691.355599 903.862454,682.11945 903.862454,670.726916 C903.862454,659.334381 913.095913,650.098232 924.48513,650.098232 C935.874347,650.098232 945.107807,659.334381 945.107807,670.726916 Z" fill="#B8001C"/>
                <path d="M905.630112,443.222004 C905.630112,454.614538 896.396652,463.850688 885.007435,463.850688 C873.618218,463.850688 864.384758,454.614538 864.384758,443.222004 C864.384758,431.82947 873.618218,422.59332 885.007435,422.59332 C896.396652,422.59332 905.630112,431.82947 905.630112,443.222004 Z" fill="#B8001C"/>
                <path d="M1081.21747,780.943026 C1081.21747,792.33556 1071.98401,801.571709 1060.5948,801.571709 C1049.20558,801.571709 1039.97212,792.33556 1039.97212,780.943026 C1039.97212,769.550491 1049.20558,760.314342 1060.5948,760.314342 C1071.98401,760.314342 1081.21747,769.550491 1081.21747,780.943026 Z" fill="#B8001C"/>
                <path d="M433.370818,123.12913 C414.363679,123.12913 398.955052,107.716153 398.955052,88.7033399 C398.955052,69.6905267 414.363679,54.2775496 433.370818,54.2775496 C452.377957,54.2775496 467.786583,69.6905267 467.786583,88.7033399 C467.786583,107.716153 452.377957,123.12913 433.370818,123.12913 Z M357.656134,88.7033399 C357.656134,130.531639 391.554286,164.440079 433.370818,164.440079 C475.18735,164.440079 509.085502,130.531639 509.085502,88.7033399 C509.085502,46.8751784 475.18735,12.9666012 433.370818,12.9666012 C391.554286,12.9666012 357.656134,46.8750407 357.656134,88.7033399 Z" fill="#9529FF"/>
                <path d="M20.6226793,180.943026 C32.0123084,180.943026 41.2453556,190.18973 41.2453556,201.595285 C41.2453556,220.605001 56.6338593,236.015717 75.6164829,236.015717 L213.100992,236.015717 C232.083478,236.015717 247.472119,220.605001 247.472119,201.595285 C247.472119,190.18973 256.705579,180.943026 268.094796,180.943026 C279.484012,180.943026 288.717472,190.18973 288.717472,201.595285 C288.717472,243.417487 254.863287,277.320236 213.100992,277.320236 L78.3918827,277.320236 C78.3833587,277.320236 78.3746971,277.320236 78.3661731,277.320236 C59.3835494,277.320236 43.9950458,292.730952 43.9950458,311.740668 L43.9950458,449.422397 C43.9950458,468.432113 59.3835494,483.842829 78.3661731,483.842829 C89.7558023,483.842829 98.9888495,493.089534 98.9888495,504.495088 C98.9888495,515.900643 89.7558023,525.147348 78.3661731,525.147348 C36.6042911,525.147348 2.74967932,491.244599 2.74967932,449.422397 L2.74967932,311.740668 C2.74967932,290.713914 11.3077326,271.687676 25.1259844,257.966315 C9.70228469,244.103142 0,223.983711 0,201.595285 C0,190.18973 9.23309131,180.943026 20.6226793,180.943026 Z" fill="#FFC719"/>
                <path d="M218.521983,126.320653 C229.414693,92.6932889 261.073632,68.3693517 298.430797,68.3693517 L378.256825,68.3693517 C389.658183,68.3693517 398.901487,77.5835044 398.901487,88.9498258 C398.901487,100.31601 389.658183,109.5303 378.256825,109.5303 L298.430797,109.5303 C278.91658,109.5303 262.462498,122.590095 257.383355,140.420263 C276.367071,154.133471 288.717472,176.433679 288.717472,201.613809 C288.717472,212.983093 279.484012,222.200393 268.094796,222.200393 C256.705578,222.200393 247.472119,212.983093 247.472119,201.613809 C247.472119,182.664544 232.083477,167.302835 213.100991,167.302835 L75.6164795,167.302835 C56.6338555,167.302835 41.2453532,182.664544 41.2453532,201.613809 C41.2453532,212.983093 32.0123043,222.200393 20.6226766,222.200393 C9.23308677,222.200393 0,212.983093 0,201.613809 C0,159.924603 33.8545967,126.129666 75.6164795,126.129666 L213.100991,126.129666 C214.923771,126.129666 216.731487,126.194046 218.521979,126.320653 L218.521983,126.320653 Z" fill="#E5D5E5" fill-rule="nonzero"/>
                <path d="M288.771038,201.866405 C288.771038,182.853729 304.179664,167.440614 323.186803,167.440614 C342.193942,167.440614 357.602568,182.853729 357.602568,201.866405 C357.602568,220.87908 342.193942,236.292195 323.186803,236.292195 C311.782795,236.292195 302.537344,245.540339 302.537344,256.947669 C302.537344,268.354999 311.782795,277.603143 323.186803,277.603143 C365.003335,277.603143 398.901487,243.695117 398.901487,201.866405 C398.901487,160.037692 365.003335,126.129666 323.186803,126.129666 C281.370271,126.129666 247.472119,160.037692 247.472119,201.866405 C247.472119,213.273735 256.71757,222.521879 268.121578,222.521879 C279.525586,222.521879 288.771038,213.273735 288.771038,201.866405 Z" fill="#463C74"/>
                <path d="M288.717472,202.1611 C288.717472,190.768566 279.484012,181.532417 268.094796,181.532417 C256.705579,181.532417 247.472119,190.768566 247.472119,202.1611 C247.472119,213.553635 256.705579,222.789784 268.094796,222.789784 C279.484012,222.789784 288.717472,213.553635 288.717472,202.1611 Z" fill="#B8001C"/>
                <path d="M41.2453532,201.571709 C41.2453532,190.179175 32.0118934,180.943026 20.6226766,180.943026 C9.23345973,180.943026 0,190.179175 0,201.571709 C0,212.964244 9.23345973,222.200393 20.6226766,222.200393 C32.0118934,222.200393 41.2453532,212.964244 41.2453532,201.571709 Z" fill="#463C74"/>
                <path d="M268.094796,327.111984 C268.094796,315.71945 258.861336,306.483301 247.472119,306.483301 C236.082902,306.483301 226.849442,315.71945 226.849442,327.111984 C226.849442,338.504519 236.082902,347.740668 247.472119,347.740668 C258.861336,347.740668 268.094796,338.504519 268.094796,327.111984 Z" fill="#463C74"/>
                <path d="M268.094796,381.925344 C268.094796,370.532809 258.861336,361.29666 247.472119,361.29666 C236.082902,361.29666 226.849442,370.532809 226.849442,381.925344 C226.849442,393.317878 236.082902,402.554028 247.472119,402.554028 C258.861336,402.554028 268.094796,393.317878 268.094796,381.925344 Z" fill="#463C74"/>
                <path d="M447.217472,405.500982 C447.217472,394.108448 437.984012,384.872299 426.594796,384.872299 C415.205579,384.872299 405.972119,394.108448 405.972119,405.500982 C405.972119,416.893517 415.205579,426.129666 426.594796,426.129666 C437.984012,426.129666 447.217472,416.893517 447.217472,405.500982 Z" fill="#463C74"/>
                <path d="M503.782528,402.554028 C503.782528,391.161493 494.549068,381.925344 483.159851,381.925344 C471.770634,381.925344 462.537175,391.161493 462.537175,402.554028 C462.537175,413.946562 471.770634,423.182711 483.159851,423.182711 C494.549068,423.182711 503.782528,413.946562 503.782528,402.554028 Z" fill="#463C74"/>
                <path d="M503.782528,460.314342 C503.782528,448.921807 494.549068,439.685658 483.159851,439.685658 C471.770634,439.685658 462.537175,448.921807 462.537175,460.314342 C462.537175,471.706876 471.770634,480.943026 483.159851,480.943026 C494.549068,480.943026 503.782528,471.706876 503.782528,460.314342 Z" fill="#463C74"/>
                <path d="M398.901487,88.9980354 C398.901487,77.6052259 389.668027,68.3693517 378.27881,68.3693517 C366.889594,68.3693517 357.656134,77.6052259 357.656134,88.9980354 C357.656134,100.390982 366.889594,109.626719 378.27881,109.626719 C389.668027,109.626719 398.901487,100.390982 398.901487,88.9980354 Z" fill="#B8001C"/>
                <path d="M454.288104,88.9980354 C454.288104,77.6050884 445.054644,68.3693517 433.665428,68.3693517 C422.276211,68.3693517 413.042751,77.6050884 413.042751,88.9980354 C413.042751,100.390982 422.276211,109.626719 433.665428,109.626719 C445.054644,109.626719 454.288104,100.390982 454.288104,88.9980354 Z" fill="#B8001C"/>
                <path d="M199.198221,180.889445 C180.254474,180.889445 164.897238,165.47633 164.897238,146.463654 C164.897238,127.450841 180.254474,112.037864 199.198221,112.037864 C210.564194,112.037864 219.77881,102.790133 219.77881,91.3823897 C219.77881,79.9746467 210.564194,70.7269155 199.198221,70.7269155 C157.521155,70.7269155 123.736059,104.635355 123.736059,146.463654 C123.736059,188.292366 157.521155,222.200393 199.198221,222.200393 C210.564194,222.200393 219.77881,212.952249 219.77881,201.544919 C219.77881,190.137589 210.564194,180.889445 199.198221,180.889445 Z" fill="#9529FF"/>
                <path d="M96.6319703,388.998035 C149.024568,388.998035 191.496283,431.482122 191.496283,483.88998 C191.496283,495.282515 200.729742,504.518664 212.118959,504.518664 C223.508176,504.518664 232.741636,495.282515 232.741636,483.88998 C232.741636,408.697053 171.803001,347.740668 96.6319703,347.740668 C85.242341,347.740668 76.0092937,356.976817 76.0092937,368.369352 C76.0092937,379.761886 85.242341,388.998035 96.6319703,388.998035 Z" fill="#B8001C"/>
                <path d="M100.167286,504.518664 C100.167286,493.12613 90.934239,483.88998 79.5446097,483.88998 C68.1549804,483.88998 58.9219331,493.12613 58.9219331,504.518664 C58.9219331,515.911198 68.1549804,525.147348 79.5446097,525.147348 C90.934239,525.147348 100.167286,515.911198 100.167286,504.518664 Z" fill="#B8001C"/>
                <path d="M1000.49442,895.284872 C1000.49442,906.677407 991.260964,915.913556 979.871747,915.913556 C968.48253,915.913556 959.249071,906.677407 959.249071,895.284872 C959.249071,883.892338 968.48253,874.656189 979.871747,874.656189 C991.260964,874.656189 1000.49442,883.892338 1000.49442,895.284872 Z" fill="#463C74"/>
                <path d="M1055.29182,895.284872 C1055.29182,906.677407 1046.05836,915.913556 1034.66914,915.913556 C1023.27993,915.913556 1014.04647,906.677407 1014.04647,895.284872 C1014.04647,883.892338 1023.27993,874.656189 1034.66914,874.656189 C1046.05836,874.656189 1055.29182,883.892338 1055.29182,895.284872 Z" fill="#463C74"/>
                <path d="M718.258364,763.261297 C718.258364,774.653831 709.024905,783.88998 697.635688,783.88998 C686.246471,783.88998 677.013011,774.653831 677.013011,763.261297 C677.013011,751.868762 686.246471,742.632613 697.635688,742.632613 C709.024905,742.632613 718.258364,751.868762 718.258364,763.261297 Z" fill="#B8001C"/>
                <path d="M719.436803,1010.8055 C719.436803,1022.19804 710.203343,1031.43418 698.814126,1031.43418 C687.42491,1031.43418 678.19145,1022.19804 678.19145,1010.8055 C678.19145,999.412967 687.42491,990.176817 698.814126,990.176817 C710.203343,990.176817 719.436803,999.412967 719.436803,1010.8055 Z" fill="#B8001C"/>
                <path d="M949.300897,196.267191 C925.994367,196.267191 906.877064,215.290963 906.877064,239.034578 C906.877064,262.776817 925.994367,281.800589 949.300897,281.800589 C1033.99432,281.800589 1102.42937,350.765029 1102.42937,435.559921 C1102.42937,446.952456 1093.18057,456.188605 1081.77243,456.188605 C1070.3643,456.188605 1061.1155,446.952456 1061.1155,435.559921 C1061.1155,373.303929 1010.93155,323.057957 949.300897,323.057957 C902.93159,323.057957 865.563197,285.315717 865.563197,239.034578 C865.563197,192.752063 902.93159,155.009823 949.300897,155.009823 C960.71041,155.009823 969.957831,164.245972 969.957831,175.638507 C969.957831,187.031041 960.71041,196.267191 949.300897,196.267191 Z" fill="#9529FF"/>
                <path d="M1060.5948,435.60633 C1060.5948,498.229807 1010.53531,548.630169 949.232342,548.630169 C937.843125,548.630169 928.609665,557.887097 928.609665,569.305261 C928.609665,580.723426 937.843125,589.980354 949.232342,589.980354 C1033.71657,589.980354 1101.84015,520.662282 1101.84015,435.60633 C1101.84015,424.188166 1092.60669,414.931238 1081.21747,414.931238 C1069.82826,414.931238 1060.5948,424.188166 1060.5948,435.60633 Z" fill="#FF193B"/>
                <path d="M1081.21747,456.188605 C1069.82826,456.188605 1060.5948,446.952456 1060.5948,435.559921 C1060.5948,424.167387 1069.82826,414.931238 1081.21747,414.931238 C1092.60669,414.931238 1101.84015,424.167387 1101.84015,435.559921 C1101.84015,446.952456 1092.60669,456.188605 1081.21747,456.188605 Z" fill="#463C74"/>
                <path d="M800.749071,310.609037 C812.138287,310.609037 821.371747,319.859076 821.371747,331.268742 L821.371747,420.794127 C821.371747,432.203793 812.138287,441.453831 800.749071,441.453831 C789.359854,441.453831 780.126394,432.203793 780.126394,420.794127 L780.126394,331.268742 C780.126394,319.859076 789.359854,310.609037 800.749071,310.609037 Z" fill="#FFC719"/>
                <path d="M462.496817,194.519202 C462.496817,271.306837 400.266866,333.554916 323.501591,333.554916 C312.10123,333.554916 302.858736,342.800102 302.858736,354.203784 C302.858736,365.607466 312.10123,374.852652 323.501591,374.852652 C423.067587,374.852652 503.782528,294.114201 503.782528,194.519202 C503.782528,183.115521 494.540033,173.870334 483.139673,173.870334 C471.739312,173.870334 462.496817,183.115521 462.496817,194.519202 Z" fill="#FFC719"/>
                <path d="M1141.90706,238.70334 C1141.90706,250.095874 1132.6568,259.332024 1121.24686,259.332024 L946.323775,259.332024 C934.913832,259.332024 925.663569,250.095874 925.663569,238.70334 C925.663569,227.310806 934.913832,218.074656 946.323775,218.074656 L1121.24686,218.074656 C1132.6568,218.074656 1141.90706,227.310806 1141.90706,238.70334 Z" fill="#E5D5E5" fill-rule="nonzero"/>
                <path d="M503.782528,194.499018 C503.782528,183.106483 494.549068,173.870334 483.159851,173.870334 C471.770634,173.870334 462.537175,183.106483 462.537175,194.499018 C462.537175,205.891552 471.770634,215.127701 483.159851,215.127701 C494.549068,215.127701 503.782528,205.891552 503.782528,194.499018 Z" fill="#B8001C"/>
                <path d="M1100.51352,194.350786 C1092.45968,202.406974 1079.4014,202.406974 1071.34893,194.350786 C1063.29509,186.294597 1063.29509,173.232515 1071.34893,165.177701 C1079.4014,157.121513 1092.45968,157.121513 1100.51352,165.177701 C1108.56736,173.232515 1108.56736,186.294597 1100.51352,194.350786 Z" fill="#463C74"/>
                <path d="M960.279321,132.464584 C952.225478,140.520974 939.167199,140.520974 931.114731,132.464584 C923.060889,124.408607 923.060889,111.347469 931.114731,103.291492 C939.167199,95.2355145 952.225478,95.2355145 960.279321,103.291492 C968.333163,111.347469 968.333163,124.408607 960.279321,132.464584 Z" fill="#463C74"/>
                <path d="M0,640.667976 C0,629.275442 9.23308852,620.039293 20.6226766,620.039293 L86.6152416,620.039293 C98.0048709,620.039293 107.237918,629.275442 107.237918,640.667976 C107.237918,652.060511 98.0048709,661.29666 86.6152416,661.29666 L20.6226766,661.29666 C9.23308852,661.29666 0,652.060511 0,640.667976 Z" fill="#463C74"/>
                <path d="M656.390335,1195.28487 C645.001118,1195.28487 635.767658,1186.0668 635.767658,1174.69656 L635.767658,1115.67672 C635.767658,1104.30648 645.001118,1095.08841 656.390335,1095.08841 C667.779551,1095.08841 677.013011,1104.30648 677.013011,1115.67672 L677.013011,1174.69656 C677.013011,1186.0668 667.779551,1195.28487 656.390335,1195.28487 Z" fill="#FFC719"/>
                <path d="M755.379182,1178.78193 C755.379182,1167.38939 764.621495,1158.15324 776.021631,1158.15324 L939.78506,1158.15324 C951.185197,1158.15324 960.427509,1167.38939 960.427509,1178.78193 C960.427509,1190.17446 951.185197,1199.41061 939.78506,1199.41061 L776.021631,1199.41061 C764.621495,1199.41061 755.379182,1190.17446 755.379182,1178.78193 Z" fill="#9529FF"/>
                <path d="M0,31.237721 C0,19.8447741 9.23308947,10.6090373 20.6226774,10.6090373 L115.486989,10.6090373 C126.876618,10.6090373 136.109665,19.8447741 136.109665,31.237721 C136.109665,42.630668 126.876618,51.8664047 115.486989,51.8664047 L20.6226774,51.8664047 C9.23308947,51.8664047 0,42.630668 0,31.237721 Z" fill="#B8001C"/>
                <path d="M945.107807,1199.41061 C933.71859,1199.41061 924.48513,1190.17446 924.48513,1178.78193 C924.48513,1167.38939 933.71859,1158.15324 945.107807,1158.15324 C956.497024,1158.15324 965.730483,1167.38939 965.730483,1178.78193 C965.730483,1190.17446 956.497024,1199.41061 945.107807,1199.41061 Z" fill="#B8001C"/>
                <path d="M885.03981,141.389063 C850.165329,141.389063 821.896217,169.667782 821.896217,204.551048 C821.896217,215.925698 812.677253,225.147348 801.305915,225.147348 C789.933205,225.147348 780.715613,215.925698 780.715613,204.551048 C780.715613,146.91711 827.422654,100.196464 885.03981,100.196464 C896.411147,100.196464 905.630112,109.417702 905.630112,120.792763 C905.630112,132.167825 896.411147,141.389063 885.03981,141.389063 Z" fill="#B8001C"/>
                <path d="M786.755995,189.932122 C794.808463,181.875933 807.866742,181.875933 815.920585,189.932122 C823.974427,197.98831 823.974427,211.049018 815.920585,219.105206 C807.866742,227.161395 794.808463,227.161395 786.755995,219.105206 C778.702153,211.049018 778.702153,197.98831 786.755995,189.932122 Z" fill="#463C74"/>
                <path d="M1195.52602,793.320236 C1268.41893,793.320236 1327.51115,734.210806 1327.51115,661.29666 C1327.51115,649.904126 1336.74461,640.667976 1348.13383,640.667976 C1359.52305,640.667976 1368.75651,649.904126 1368.75651,661.29666 C1368.75651,756.99725 1291.19874,834.577603 1195.52602,834.577603 C1184.13681,834.577603 1174.90335,825.341454 1174.90335,813.948919 C1174.90335,802.556385 1184.13681,793.320236 1195.52602,793.320236 Z" fill="#FFC719"/>
                <path d="M1362.71612,675.883202 C1354.66228,683.939391 1341.604,683.939391 1333.55153,675.883202 C1325.49769,667.827014 1325.49769,654.764931 1333.55153,646.710118 C1341.604,638.653929 1354.66228,638.653929 1362.71612,646.710118 C1370.76997,654.764931 1370.76997,667.827014 1362.71612,675.883202 Z" fill="#463C74"/>
                <path d="M1421.04678,675.883202 C1412.99018,683.939391 1399.92915,683.939391 1391.88631,675.883202 C1383.82972,667.827014 1383.82972,654.764931 1391.88631,646.710118 C1399.92915,638.653929 1412.99018,638.653929 1421.04678,646.710118 C1429.10337,654.764931 1429.10337,667.827014 1421.04678,675.883202 Z" fill="#463C74"/>
                <path d="M1559.04068,753.309009 C1460.16564,753.309009 1380.01901,833.483111 1380.01901,932.382823 C1380.01901,943.793958 1370.77048,953.045187 1359.36267,953.045187 C1347.95485,953.045187 1338.70632,943.793958 1338.70632,932.382823 C1338.70632,810.659464 1437.34726,711.984283 1559.04068,711.984283 C1570.44298,711.984283 1579.69703,721.235512 1579.69703,732.646646 C1579.69703,744.057781 1570.44298,753.309009 1559.04068,753.309009 Z" fill="#9529FF"/>
                <path d="M1141.90706,238.599507 C1141.96454,249.992271 1132.77901,259.275367 1121.38819,259.332024 C1109.99874,259.389514 1100.71973,250.201313 1100.66171,238.807173 C1100.60424,227.414408 1109.79114,218.132688 1121.18058,218.074656 C1132.57003,218.017166 1141.85042,227.206742 1141.90706,238.599507 Z" fill="#B8001C"/>
                <path d="M1330.45725,29.3653045 C1330.51472,40.758117 1321.3292,50.040477 1309.93838,50.0982318 C1298.54893,50.1555851 1289.26991,40.9666043 1289.2119,29.5737918 C1289.15442,18.1811168 1298.34132,8.89875677 1309.73077,8.84086444 C1321.12022,8.78351116 1330.40061,17.9726295 1330.45725,29.3653045 Z" fill="#B8001C"/>
                <path d="M1141.90706,31.1334774 C1141.96454,42.5262899 1132.77901,51.8086499 1121.38819,51.8664047 C1109.99874,51.923758 1100.71973,42.7347771 1100.66171,31.3419647 C1100.60424,19.9492897 1109.79114,10.6669297 1121.18058,10.6090373 C1132.57003,10.5516841 1141.85042,19.7408024 1141.90706,31.1334774 Z" fill="#B8001C"/>
                <path d="M1141.90706,85.9468369 C1141.96454,97.3396494 1132.77901,106.622009 1121.38819,106.679764 C1109.99874,106.737118 1100.71973,97.5481367 1100.66171,86.1553242 C1100.60424,74.7626492 1109.79114,65.4802892 1121.18058,65.4223969 C1132.57003,65.3650436 1141.85042,74.554162 1141.90706,85.9468369 Z" fill="#B8001C"/>
                <path d="M1548.45194,681.925344 L1466.58337,681.925344 C1455.19057,681.925344 1445.94424,672.689194 1445.94424,661.29666 C1445.94424,649.904126 1455.19057,640.667976 1466.58337,640.667976 L1548.45194,640.667976 C1559.84475,640.667976 1569.09108,649.904126 1569.09108,661.29666 C1569.09108,672.689194 1559.84475,681.925344 1548.45194,681.925344 Z" fill="#E5D5E5" fill-rule="nonzero"/>
                <path d="M1579.69703,732.612967 C1579.69703,744.005501 1570.45807,753.24165 1559.07435,753.24165 C1547.69063,753.24165 1538.45167,744.005501 1538.45167,732.612967 C1538.45167,721.220432 1547.69063,711.984283 1559.07435,711.984283 C1570.45807,711.984283 1579.69703,721.220432 1579.69703,732.612967 Z" fill="#B8001C"/>
                <path d="M1343.95573,183.595285 C1343.95573,164.582609 1328.5471,149.169495 1309.53996,149.169495 C1290.53282,149.169495 1275.1242,164.582609 1275.1242,183.595285 C1275.1242,202.60796 1290.53282,218.021075 1309.53996,218.021075 C1320.94397,218.021075 1330.18942,227.26922 1330.18942,238.676549 C1330.18942,250.083879 1320.94397,259.332024 1309.53996,259.332024 C1267.72343,259.332024 1233.82528,225.423997 1233.82528,183.595285 C1233.82528,141.766573 1267.72343,107.858546 1309.53996,107.858546 C1351.35649,107.858546 1385.25465,141.766573 1385.25465,183.595285 C1385.25465,195.002615 1376.00369,204.250759 1364.60519,204.250759 C1353.20118,204.250759 1343.95573,195.002615 1343.95573,183.595285 Z" fill="#463C74"/>
                <path d="M1450.11086,41.3109484 C1431.163,41.3109484 1415.80988,56.7239255 1415.80988,75.7367387 C1415.80988,94.7495519 1431.163,110.162529 1450.11086,110.162529 C1461.47135,110.162529 1470.69145,119.41026 1470.69145,130.818003 C1470.69145,142.225333 1461.47135,151.473477 1450.11086,151.473477 C1408.42831,151.473477 1374.6487,117.565038 1374.6487,75.7367387 C1374.6487,33.9084395 1408.42831,0 1450.11086,0 C1461.47135,0 1470.69145,9.24777251 1470.69145,20.6554742 C1470.69145,32.0632172 1461.47135,41.3109484 1450.11086,41.3109484 Z" fill="#E5D5E5" fill-rule="nonzero"/>
                <path d="M1331.63569,238.70334 C1331.63569,250.095874 1322.40223,259.332024 1311.01301,259.332024 C1299.62379,259.332024 1290.39033,250.095874 1290.39033,238.70334 C1290.39033,227.310806 1299.62379,218.074656 1311.01301,218.074656 C1322.40223,218.074656 1331.63569,227.310806 1331.63569,238.70334 Z" fill="#B8001C"/>
                <path d="M1471.86989,130.844794 C1471.86989,142.237328 1462.63093,151.473477 1451.24721,151.473477 C1439.86349,151.473477 1430.62454,142.237328 1430.62454,130.844794 C1430.62454,119.451847 1439.86349,110.21611 1451.24721,110.21611 C1462.63093,110.21611 1471.86989,119.451847 1471.86989,130.844794 Z" fill="#463C74"/>
                <path d="M1387.0223,238.70334 C1387.0223,250.095874 1377.78335,259.332024 1366.39963,259.332024 C1355.01041,259.332024 1345.77695,250.095874 1345.77695,238.70334 C1345.77695,227.310806 1355.01041,218.074656 1366.39963,218.074656 C1377.78335,218.074656 1387.0223,227.310806 1387.0223,238.70334 Z" fill="#463C74"/>
                <path d="M1441.8197,238.70334 C1441.8197,250.095874 1432.58074,259.332024 1421.19703,259.332024 C1409.81331,259.332024 1400.57435,250.095874 1400.57435,238.70334 C1400.57435,227.310806 1409.81331,218.074656 1421.19703,218.074656 C1432.58074,218.074656 1441.8197,227.310806 1441.8197,238.70334 Z" fill="#463C74"/>
                <path d="M1473.63755,74.8526523 C1473.63755,86.2455992 1464.39859,95.481336 1453.01487,95.481336 C1441.63115,95.481336 1432.39219,86.2455992 1432.39219,74.8526523 C1432.39219,63.4597053 1441.63115,54.2239686 1453.01487,54.2239686 C1464.39859,54.2239686 1473.63755,63.4597053 1473.63755,74.8526523 Z" fill="#B8001C"/>
                <path d="M1528.43494,74.8526523 C1528.43494,86.2455992 1519.19599,95.481336 1507.81227,95.481336 C1496.42855,95.481336 1487.18959,86.2455992 1487.18959,74.8526523 C1487.18959,63.4597053 1496.42855,54.2239686 1507.81227,54.2239686 C1519.19599,54.2239686 1528.43494,63.4597053 1528.43494,74.8526523 Z" fill="#B8001C"/>
                <path d="M1583.82156,74.8526523 C1583.82156,86.2455992 1574.5826,95.481336 1563.19888,95.481336 C1551.81517,95.481336 1542.57621,86.2455992 1542.57621,74.8526523 C1542.57621,63.4597053 1551.81517,54.2239686 1563.19888,54.2239686 C1574.5826,54.2239686 1583.82156,63.4597053 1583.82156,74.8526523 Z" fill="#B8001C"/>
                <path d="M1508.40149,442.632613 C1497.01777,442.632613 1487.77881,433.396464 1487.77881,422.003929 C1487.77881,410.611395 1497.01777,401.375246 1508.40149,401.375246 C1519.7852,401.375246 1529.02416,410.611395 1529.02416,422.003929 C1529.02416,433.396464 1519.7852,442.632613 1508.40149,442.632613 Z" fill="#463C74"/>
            </g>
        </g>
    </g>
</svg>