<svg viewBox="0 0 512 512">
		<path d="M359.987,34H152.013C96.759,34,52,78.969,52,134.222v34.833A7.79,7.79,0,0,0,59.807,177H452.193A7.79,7.79,0,0,0,460,169.055V134.222C460,78.969,415.241,34,359.987,34ZM444,161H68V134.222A84.151,84.151,0,0,1,152.013,50H359.987A84.151,84.151,0,0,1,444,134.222Z"/>
		<path d="M452.193,335H59.807A7.79,7.79,0,0,0,52,342.945v34.833C52,433.031,96.759,478,152.013,478H359.987C415.241,478,460,433.031,460,377.778V342.945A7.79,7.79,0,0,0,452.193,335ZM444,377.778A84.151,84.151,0,0,1,359.987,462H152.013A84.151,84.151,0,0,1,68,377.778V351H444Z"/>
		<path d="M460,224a38,38,0,0,0-38-38H90a38,38,0,0,0-38,38v64a38,38,0,0,0,38,38H422a38,38,0,0,0,38-38ZM89.807,202H422.193A21.876,21.876,0,0,1,444,224.018V262.5c-8-1.876-13.062-6.634-19.121-12.329-8.745-8.221-18.609-17.539-38.127-17.539s-29.407,9.318-38.152,17.539c-7.844,7.373-14.027,13.2-27.206,13.2s-19.369-5.824-27.213-13.2c-8.746-8.221-18.656-17.539-38.174-17.539s-29.43,9.318-38.176,17.539c-7.843,7.373-14.038,13.2-27.217,13.2s-19.378-5.824-27.223-13.2c-8.746-8.22-18.66-17.538-38.18-17.538S95.873,241.95,87.127,250.17C81.066,255.866,76,260.624,68,262.5V224.018A21.876,21.876,0,0,1,89.807,202ZM422.193,310H89.807A21.876,21.876,0,0,1,68,287.982v-9.207c14-2.147,22.625-9.935,30.084-16.945,7.845-7.374,13.994-13.2,27.175-13.2s19.354,5.824,27.2,13.2c8.747,8.22,18.649,17.538,38.169,17.538s29.425-9.318,38.17-17.539c7.844-7.373,14.037-13.2,27.216-13.2s19.373,5.824,27.217,13.2c8.746,8.221,18.658,17.539,38.177,17.539s29.43-9.318,38.176-17.539c7.843-7.373,14.039-13.2,27.217-13.2s19.277,5.824,27.121,13.2c7.458,7.011,16.079,14.8,30.079,16.945v9.208A21.876,21.876,0,0,1,422.193,310Z"/>
</svg>
