<svg viewBox="-70 -10 550 550">
    <path d="m324.808594 2.667969c-1.847656-1.714844-4.277344-2.667969-6.800782-2.667969h-165.488281c-27.601562.03125-49.96875 22.398438-50 50v23.929688h-52.363281c-27.601562.03125-49.96875 22.398437-50 50v312.382812c.03125 27.601562 22.398438 49.96875 50 50h221.402344c27.601562-.03125 49.96875-22.398438 50-50v-23.925781h58.046875c27.601562-.03125 49.96875-22.398438 50-50v-258.125c0-2.78125-1.160157-5.4375-3.199219-7.328125zm2.433594 29.542969 63.351562 58.777343h-43.351562c-11.042969-.011719-19.988282-8.960937-20-20zm-55.6875 434.097656h-221.398438c-16.558594-.019532-29.980469-13.4375-30-30v-312.382813c.019531-16.558593 13.441406-29.980469 30-30h149.035156v56.675781c.027344 22.082032 17.921875 39.976563 40 40h62.363282v245.710938c-.019532 16.5625-13.4375 29.980469-30 30zm-52.363282-361.667969 69.777344 65.960937h-49.777344c-11.039062-.011718-19.984375-8.960937-20-20zm160.410156 287.746094h-58.046874v-214.195313c0-2.75-1.132813-5.378906-3.128907-7.265625l-99.714843-94.269531c-1.859376-1.753906-4.316407-2.734375-6.871094-2.734375h-89.320313v-23.921875c.019531-16.5625 13.4375-29.980469 30-30h154.722657v50.988281c.023437 22.078125 17.917968 39.972657 40 40h62.359374v251.398438c-.019531 16.558593-13.4375 29.980469-30 30zm0 0"/>
</svg>
