<svg viewBox="0 0 512 512">
	<path d="M506.458,295.123L459.77,94.62c-0.019-0.079-0.038-0.158-0.058-0.237c-3.328-13.311-12.386-24.234-24.853-29.968
			c-12.467-5.734-26.655-5.502-38.925,0.634l-26.549,13.274c-7.41,3.705-10.413,12.714-6.708,20.124s12.712,10.413,20.123,6.708
			l26.549-13.274c4.091-2.045,8.819-2.123,12.975-0.211c4.125,1.897,7.13,5.498,8.26,9.891l39.655,170.301
			c-1.076-0.077-2.156-0.13-3.245-0.13H315.191c-13.534,0-26.219,6.003-34.798,16.469c-3.757,4.582-6.52,9.768-8.217,15.263
			c-10.651-2.338-21.702-2.338-32.353,0c-1.697-5.496-4.46-10.682-8.217-15.263c-8.581-10.467-21.264-16.47-34.798-16.47H45.004
			c-1.088,0-2.168,0.053-3.244,0.13l39.655-170.3c1.129-4.393,4.134-7.994,8.259-9.891c4.156-1.911,8.886-1.834,12.976,0.211
			l26.549,13.274c7.41,3.705,16.418,0.701,20.123-6.708c3.705-7.41,0.702-16.419-6.708-20.124l-26.549-13.274
			c-12.271-6.136-26.461-6.367-38.927-0.634c-12.466,5.736-21.524,16.658-24.851,29.97c-0.021,0.079-0.039,0.157-0.058,0.236
			L5.541,295.123c-5.056,9.206-6.764,19.923-4.662,30.432l13.176,65.881c6.987,34.933,37.915,60.288,73.541,60.288h66.62
			c35.625,0,66.554-25.355,73.541-60.288l11.289-56.439c10.857-4.392,23.055-4.392,33.91,0l11.289,56.439
			c6.986,34.933,37.914,60.289,73.541,60.289h66.62c35.625,0,66.554-25.355,73.541-60.288l13.176-65.88
			C513.222,315.046,511.514,304.329,506.458,295.123z M211.516,319.672l-13.176,65.88c-4.192,20.96-22.749,36.173-44.124,36.173
			h-66.62c-21.375,0-39.932-15.213-44.124-36.173l-13.176-65.881c-0.885-4.424,0.248-8.962,3.108-12.45
			c2.86-3.489,7.088-5.49,11.599-5.49h151.806c4.512,0,8.739,2.001,11.599,5.49C211.268,310.71,212.401,315.248,211.516,319.672z
			 M481.703,319.672l-13.176,65.88c-4.192,20.96-22.749,36.173-44.124,36.173h-66.62c-21.376,0-39.933-15.212-44.124-36.173
			l-13.176-65.881c-0.885-4.424,0.248-8.963,3.108-12.451s7.088-5.49,11.599-5.49h151.805c4.512,0,8.74,2.001,11.6,5.49
			C481.455,310.71,482.588,315.248,481.703,319.672z"/>
</svg>
