<svg viewBox="0 0 512 512">
    <path d="M111.398 336.7c-26.183 0-47.484 21.3-47.484 47.48 0 26.183 21.3 47.488 47.484 47.488 26.188 0 47.489-21.305 47.489-47.488 0-26.18-21.301-47.48-47.489-47.48zm0 64.968c-9.64 0-17.484-7.848-17.484-17.488 0-9.637 7.844-17.48 17.484-17.48 9.645 0 17.489 7.843 17.489 17.48 0 9.64-7.844 17.488-17.489 17.488zm0 0" />
    <path d="M464.867 257.066H435.82l16.215-15.808c18.758-18.297 18.992-48.516.422-67.082L337.523 59.246c-18.394-18.398-48.214-18.437-66.648 0l-15.941 15.941V47.133C254.934 21.313 234.066 0 207.8 0H47.133C20.78 0 0 21.402 0 47.133V384.18c0 .277.027.547.04.82.858 35.79 16.148 70.164 42.25 94.734 0 0 24.983 23.536 24.98 23.536h.003A31.98 31.98 0 0 0 89.277 512h375.59C491.22 512 512 490.598 512 464.867V304.2c0-25.82-20.871-47.133-47.133-47.133zM292.09 80.457c6.683-6.684 17.527-6.695 24.222 0l114.934 114.934c6.754 6.754 6.664 17.738-.156 24.39l-38.246 37.285h-62.59L222.867 149.68zm-90.434 90.434 86.172 86.175H115.48zm135.742 116.175V482H222.801V287.066zM47.133 30H207.8c9.433 0 17.133 7.64 17.133 17.133v58.054l-39.414 39.415H30v-97.47C30 37.798 37.547 30 47.133 30zM30 174.602h125.52L36.55 293.57a126.662 126.662 0 0 0-6.55 7.07zM87.84 481.43l-24.977-23.532C41.977 438.234 30 410.508 30 381.808c0-25.316 9.86-49.12 27.766-67.027l26.218-26.219a5.152 5.152 0 0 1 3.614-1.496H192.8V482H89.277a2.094 2.094 0 0 1-1.437-.57zM482 464.867c0 9.36-7.566 17.133-17.133 17.133h-97.469V287.066h97.47c9.335 0 17.132 7.551 17.132 17.133zm0 0" />
</svg>