<svg viewBox="0 0 407.51 407.51">
	<path d="M246.596,240.849l-21.42,24.555l-44.931-63.739c-1.848-2.777-5.029-4.368-8.359-4.18c-3.27,0.077-6.335,1.61-8.359,4.18
		l-68.963,92.996c-2.378,3.564-2.773,8.095-1.045,12.016c1.679,3.796,5.273,6.392,9.404,6.792h191.216
		c4.131-0.4,7.726-2.996,9.404-6.792c1.74-3.741,1.341-8.128-1.045-11.494l-39.706-53.29c-1.752-2.687-4.641-4.421-7.837-4.702
		C251.74,236.982,248.624,238.346,246.596,240.849z M209.502,292.571H123.82l48.065-64.784l45.453,64.784H209.502z
			M273.241,292.571h-30.302l-5.224-8.359l16.196-18.286L273.241,292.571z"/>
	<path d="M228.31,212.114c17.601,0,31.869-14.268,31.869-31.869c0-17.601-14.268-31.869-31.869-31.869
		s-31.869,14.268-31.869,31.869v0C196.441,197.846,210.709,212.114,228.31,212.114z M217.339,180.245
		c0-6.059,4.912-10.971,10.971-10.971s10.971,4.912,10.971,10.971c0,6.059-4.912,10.971-10.971,10.971
		S217.339,186.304,217.339,180.245C217.339,180.245,217.339,180.245,217.339,180.245z"/>
	<path d="M362.58,113.371L251.82,3.135c-1.929-1.969-4.558-3.095-7.314-3.135H94.041C65.187,0,41.796,23.391,41.796,52.245v303.02
		c0,28.854,23.391,52.245,52.245,52.245h219.429c28.854,0,52.245-23.391,52.245-52.245v-234.58
		C365.675,117.93,364.548,115.301,362.58,113.371z M256,104.49V36.571l73.665,73.143h-68.441
		c-2.579,0.307-4.918-1.535-5.224-4.114C255.956,105.232,255.956,104.859,256,104.49z M344.816,355.265
		c0,17.312-14.035,31.347-31.347,31.347H94.041c-17.312,0-31.347-14.034-31.347-31.347V52.245
		c0-17.312,14.034-31.347,31.347-31.347h141.061v83.592c0,14.427,11.695,26.122,26.122,26.122h83.592V355.265z"/>
</svg>
