<svg viewBox="0 0 512 512">
	<path d="M128,174.829c-46.48,0-84.293,37.813-84.293,84.293S81.52,343.415,128,343.415s84.293-37.813,84.293-84.293
		  S174.48,174.829,128,174.829z M128,305.951c-25.825,0-46.829-21.005-46.829-46.829s21.005-46.829,46.829-46.829
		  s46.829,21.005,46.829,46.829S153.825,305.951,128,305.951z"/>
	<path d="M384,0c-46.48,0-84.293,37.813-84.293,84.293c0,46.48,37.813,84.293,84.293,84.293s84.293-37.813,84.293-84.293
		  C468.293,37.813,430.48,0,384,0z M384,131.122c-25.825,0-46.829-21.004-46.829-46.829c0-25.825,21.005-46.829,46.829-46.829
		  s46.829,21.004,46.829,46.829C430.829,110.117,409.825,131.122,384,131.122z"/>
	<path d="M384,343.415c-46.48,0-84.293,37.813-84.293,84.293S337.52,512,384,512s84.293-37.813,84.293-84.293
		  S430.48,343.415,384,343.415z M384,474.537c-25.825,0-46.829-21.004-46.829-46.829c0-25.825,21.005-46.829,46.829-46.829
		  s46.829,21.004,46.829,46.829C430.829,453.532,409.825,474.537,384,474.537z"/>
	<rect x="165.434" y="156.443" transform="matrix(0.8397 -0.5431 0.5431 0.8397 -53.5916 168.8122)" width="187.385" height="37.464"/>
	<rect x="238.204" y="252.556" transform="matrix(0.5444 -0.8388 0.8388 0.5444 -171.2839 372.1291)" width="37.463" height="182.38"/>
</svg>
